<?xml version="1.0" encoding="UTF-8" standalone="no"?>
<!DOCTYPE svg PUBLIC "-//W3C//DTD SVG 1.1//EN"
 "http://www.w3.org/Graphics/SVG/1.1/DTD/svg11.dtd">
<!-- Generated by graphviz version 14.1.1 (20251213.1925)
 -->
<!-- Title: application_state_diagram Pages: 1 -->
<svg width="492pt" height="392pt"
 viewBox="0.00 0.00 492.00 392.00" xmlns="http://www.w3.org/2000/svg" xmlns:xlink="http://www.w3.org/1999/xlink">
<g id="graph0" class="graph" transform="scale(1 1) rotate(0) translate(4 388)">
<title>application_state_diagram</title>
<polygon fill="white" stroke="none" points="-4,4 -4,-388 487.99,-388 487.99,4 -4,4"/>
<!-- ProductList -->
<g id="node1" class="node">
<title>ProductList</title>
<g id="a_node1"><a xlink:href="#ProductList" xlink:title="ProductList">
<polygon fill="lightgray" stroke="black" stroke-width="2" points="254.19,-384 176.79,-384 176.79,-348 254.19,-348 254.19,-384"/>
<text xml:space="preserve" text-anchor="middle" x="215.49" y="-360.95" font-family="Times,serif" font-size="14.00">ProductList</text>
</a>
</g>
</g>
<!-- ProductList&#45;&gt;ProductList -->
<g id="edge1" class="edge goProductList">
<title>ProductList&#45;&gt;ProductList</title>
<g id="a_edge1"><a xlink:href="#goProductList" xlink:title="&lt;TABLE&gt;">
<path fill="none" stroke="#999999" stroke-width="1.3" stroke-opacity="0.466667" d="M254.45,-374.07C264.57,-373.58 272.19,-370.89 272.19,-366 272.19,-363.33 269.91,-361.31 266.19,-359.95"/>
<polygon fill="#999999" fill-opacity="0.466667" stroke="#999999" stroke-width="1.3" stroke-opacity="0.466667" points="266.84,-356.51 256.39,-358.26 265.65,-363.41 266.84,-356.51"/>
</a>
</g>
<g id="a_edge1&#45;label"><a xlink:href="#goProductList" xlink:title="&lt;TABLE&gt;">
<g id="a_edge1_0"><a xlink:href="#goProductList" xlink:title="View product list (safe)">
<text xml:space="preserve" text-anchor="start" x="272.19" y="-362.15" font-family="Times,serif" font-size="13.00" fill="#00a86b">■</text>
<text xml:space="preserve" text-anchor="start" x="279.69" y="-362.15" font-family="Times,serif" font-size="13.00"> goProductList</text>
</a>
</g>
</a>
</g>
</g>
<!-- ProductDetail -->
<g id="node2" class="node">
<title>ProductDetail</title>
<g id="a_node2"><a xlink:href="#ProductDetail" xlink:title="ProductDetail">
<polygon fill="lightgray" stroke="black" stroke-width="2" points="158.19,-297 68.79,-297 68.79,-261 158.19,-261 158.19,-297"/>
<text xml:space="preserve" text-anchor="middle" x="113.49" y="-273.95" font-family="Times,serif" font-size="14.00">ProductDetail</text>
</a>
</g>
</g>
<!-- ProductList&#45;&gt;ProductDetail -->
<g id="edge4" class="edge goProductDetail">
<title>ProductList&#45;&gt;ProductDetail</title>
<g id="a_edge4"><a xlink:href="#goProductDetail" xlink:title="&lt;TABLE&gt;">
<path fill="none" stroke="#999999" stroke-width="1.3" stroke-opacity="0.466667" d="M176.64,-364.29C122.08,-362.37 27,-355.38 5.49,-330 -13.49,-307.59 21.89,-294.66 57.12,-287.58"/>
<polygon fill="#999999" fill-opacity="0.466667" stroke="#999999" stroke-width="1.3" stroke-opacity="0.466667" points="57.35,-291.1 66.55,-285.84 56.08,-284.21 57.35,-291.1"/>
</a>
</g>
<g id="a_edge4&#45;label"><a xlink:href="#goProductDetail" xlink:title="&lt;TABLE&gt;">
<g id="a_edge4_1"><a xlink:href="#goProductDetail" xlink:title="View product details (safe)">
<text xml:space="preserve" text-anchor="start" x="5.49" y="-318.65" font-family="Times,serif" font-size="13.00" fill="#00a86b">■</text>
<text xml:space="preserve" text-anchor="start" x="12.99" y="-318.65" font-family="Times,serif" font-size="13.00"> goProductDetail</text>
</a>
</g>
</a>
</g>
</g>
<!-- Cart -->
<g id="node3" class="node">
<title>Cart</title>
<g id="a_node3"><a xlink:href="#Cart" xlink:title="Cart">
<polygon fill="lightgray" stroke="black" stroke-width="2" points="246.49,-210 192.49,-210 192.49,-174 246.49,-174 246.49,-210"/>
<text xml:space="preserve" text-anchor="middle" x="219.49" y="-186.95" font-family="Times,serif" font-size="14.00">Cart</text>
</a>
</g>
</g>
<!-- ProductList&#45;&gt;Cart -->
<g id="edge5" class="edge goCart">
<title>ProductList&#45;&gt;Cart</title>
<g id="a_edge5"><a xlink:href="#goCart" xlink:title="&lt;TABLE&gt;">
<path fill="none" stroke="#999999" stroke-width="1.3" stroke-opacity="0.466667" d="M215.1,-347.7C214.71,-327.05 214.29,-291.5 215.24,-261 215.64,-248.19 216.47,-234.04 217.28,-221.98"/>
<polygon fill="#999999" fill-opacity="0.466667" stroke="#999999" stroke-width="1.3" stroke-opacity="0.466667" points="220.75,-222.5 217.97,-212.28 213.77,-222 220.75,-222.5"/>
</a>
</g>
<g id="a_edge5&#45;label"><a xlink:href="#goCart" xlink:title="&lt;TABLE&gt;">
<g id="a_edge5_2"><a xlink:href="#goCart" xlink:title="View shopping cart (safe)">
<text xml:space="preserve" text-anchor="start" x="215.24" y="-275.15" font-family="Times,serif" font-size="13.00" fill="#00a86b">■</text>
<text xml:space="preserve" text-anchor="start" x="222.74" y="-275.15" font-family="Times,serif" font-size="13.00"> goCart</text>
</a>
</g>
</a>
</g>
</g>
<!-- ProductDetail&#45;&gt;ProductList -->
<g id="edge2" class="edge goProductList">
<title>ProductDetail&#45;&gt;ProductList</title>
<g id="a_edge2"><a xlink:href="#goProductList" xlink:title="&lt;TABLE&gt;">
<path fill="none" stroke="#999999" stroke-width="1.3" stroke-opacity="0.466667" d="M109.23,-297.3C107.7,-307.73 107.75,-320.73 114.49,-330 126.24,-346.16 145.97,-354.92 164.89,-359.64"/>
<polygon fill="#999999" fill-opacity="0.466667" stroke="#999999" stroke-width="1.3" stroke-opacity="0.466667" points="164.05,-363.04 174.56,-361.68 165.5,-356.19 164.05,-363.04"/>
</a>
</g>
<g id="a_edge2&#45;label"><a xlink:href="#goProductList" xlink:title="&lt;TABLE&gt;">
<g id="a_edge2_3"><a xlink:href="#goProductList" xlink:title="View product list (safe)">
<text xml:space="preserve" text-anchor="start" x="114.49" y="-318.65" font-family="Times,serif" font-size="13.00" fill="#00a86b">■</text>
<text xml:space="preserve" text-anchor="start" x="121.99" y="-318.65" font-family="Times,serif" font-size="13.00"> goProductList</text>
</a>
</g>
</a>
</g>
</g>
<!-- ProductDetail&#45;&gt;Cart -->
<g id="edge8" class="edge doAddToCart">
<title>ProductDetail&#45;&gt;Cart</title>
<g id="a_edge8"><a xlink:href="#doAddToCart" xlink:title="&lt;TABLE&gt;">
<path fill="none" stroke="#000000" stroke-width="1.3" d="M110.44,-260.56C109.6,-250.09 110.45,-237.08 117.49,-228 132.41,-208.78 158.46,-200.06 180.5,-196.12"/>
<polygon fill="#000000" stroke="#000000" stroke-width="1.3" points="180.91,-199.6 190.29,-194.68 179.89,-192.68 180.91,-199.6"/>
</a>
</g>
<g id="a_edge8&#45;label"><a xlink:href="#doAddToCart" xlink:title="&lt;TABLE&gt;">
<g id="a_edge8_4"><a xlink:href="#doAddToCart" xlink:title="Add product to cart (unsafe)">
<text xml:space="preserve" text-anchor="start" x="117.49" y="-231.65" font-family="Times,serif" font-size="13.00" fill="#ff4136">■</text>
<text xml:space="preserve" text-anchor="start" x="124.99" y="-231.65" font-family="Times,serif" font-size="13.00"> doAddToCart</text>
</a>
</g>
</a>
</g>
</g>
<!-- Cart&#45;&gt;ProductList -->
<g id="edge3" class="edge goProductList">
<title>Cart&#45;&gt;ProductList</title>
<g id="a_edge3"><a xlink:href="#goProductList" xlink:title="&lt;TABLE&gt;">
<path fill="none" stroke="#999999" stroke-width="1.3" stroke-opacity="0.466667" d="M236.01,-210.42C247.01,-223.28 260.51,-241.82 266.49,-261 271.26,-276.27 271.55,-281.82 266.49,-297 261.38,-312.35 251.28,-327.03 241.41,-338.8"/>
<polygon fill="#999999" fill-opacity="0.466667" stroke="#999999" stroke-width="1.3" stroke-opacity="0.466667" points="238.96,-336.29 234.95,-346.09 244.2,-340.93 238.96,-336.29"/>
</a>
</g>
<g id="a_edge3&#45;label"><a xlink:href="#goProductList" xlink:title="&lt;TABLE&gt;">
<g id="a_edge3_5"><a xlink:href="#goProductList" xlink:title="View product list (safe)">
<text xml:space="preserve" text-anchor="start" x="270.18" y="-275.15" font-family="Times,serif" font-size="13.00" fill="#00a86b">■</text>
<text xml:space="preserve" text-anchor="start" x="277.68" y="-275.15" font-family="Times,serif" font-size="13.00"> goProductList</text>
</a>
</g>
</a>
</g>
</g>
<!-- Cart&#45;&gt;Cart -->
<g id="edge9" class="edge doUpdateQuantity">
<title>Cart&#45;&gt;Cart</title>
<g id="a_edge9"><a xlink:href="#doUpdateQuantity" xlink:title="&lt;TABLE&gt;">
<path fill="none" stroke="#000000" stroke-width="1.3" d="M246.73,-200.15C256.52,-200.32 264.49,-197.61 264.49,-192 264.49,-188.93 262.11,-186.73 258.35,-185.39"/>
<polygon fill="#000000" stroke="#000000" stroke-width="1.3" points="259.06,-181.96 248.68,-184.11 258.14,-188.9 259.06,-181.96"/>
</a>
</g>
<g id="a_edge9&#45;label"><a xlink:href="#doUpdateQuantity" xlink:title="&lt;TABLE&gt;">
<g id="a_edge9_6"><a xlink:href="#doUpdateQuantity" xlink:title="Update item quantity (idempotent)">
<text xml:space="preserve" text-anchor="start" x="264.49" y="-195.65" font-family="Times,serif" font-size="13.00" fill="#d4a000">■</text>
<text xml:space="preserve" text-anchor="start" x="271.99" y="-195.65" font-family="Times,serif" font-size="13.00"> doUpdateQuantity</text>
</a>
</g>
<g id="a_edge9_7"><a xlink:href="#doRemoveItem" xlink:title="Remove item from cart (idempotent)">
<text xml:space="preserve" text-anchor="start" x="264.49" y="-180.65" font-family="Times,serif" font-size="13.00" fill="#d4a000">■</text>
<text xml:space="preserve" text-anchor="start" x="271.99" y="-180.65" font-family="Times,serif" font-size="13.00"> doRemoveItem</text>
</a>
</g>
</a>
</g>
</g>
<!-- Checkout -->
<g id="node4" class="node">
<title>Checkout</title>
<g id="a_node4"><a xlink:href="#Checkout" xlink:title="Checkout">
<polygon fill="lightgray" stroke="black" stroke-width="2" points="357.57,-123 291.42,-123 291.42,-87 357.57,-87 357.57,-123"/>
<text xml:space="preserve" text-anchor="middle" x="324.49" y="-99.95" font-family="Times,serif" font-size="14.00">Checkout</text>
</a>
</g>
</g>
<!-- Cart&#45;&gt;Checkout -->
<g id="edge6" class="edge goCheckout">
<title>Cart&#45;&gt;Checkout</title>
<g id="a_edge6"><a xlink:href="#goCheckout" xlink:title="&lt;TABLE&gt;">
<path fill="none" stroke="#999999" stroke-width="1.3" stroke-opacity="0.466667" d="M241,-173.59C256.28,-161.22 277.04,-144.42 294.03,-130.66"/>
<polygon fill="#999999" fill-opacity="0.466667" stroke="#999999" stroke-width="1.3" stroke-opacity="0.466667" points="295.92,-133.63 301.49,-124.62 291.52,-128.19 295.92,-133.63"/>
</a>
</g>
<g id="a_edge6&#45;label"><a xlink:href="#goCheckout" xlink:title="&lt;TABLE&gt;">
<g id="a_edge6_8"><a xlink:href="#goCheckout" xlink:title="Proceed to checkout (safe)">
<text xml:space="preserve" text-anchor="start" x="278.28" y="-144.65" font-family="Times,serif" font-size="13.00" fill="#00a86b">■</text>
<text xml:space="preserve" text-anchor="start" x="285.78" y="-144.65" font-family="Times,serif" font-size="13.00"> goCheckout</text>
</a>
</g>
</a>
</g>
</g>
<!-- Payment -->
<g id="node5" class="node">
<title>Payment</title>
<g id="a_node5"><a xlink:href="#Payment" xlink:title="Payment">
<polygon fill="lightgray" stroke="black" stroke-width="2" points="400.69,-36 338.29,-36 338.29,0 400.69,0 400.69,-36"/>
<text xml:space="preserve" text-anchor="middle" x="369.49" y="-12.95" font-family="Times,serif" font-size="14.00">Payment</text>
</a>
</g>
</g>
<!-- Checkout&#45;&gt;Payment -->
<g id="edge7" class="edge goPayment">
<title>Checkout&#45;&gt;Payment</title>
<g id="a_edge7"><a xlink:href="#goPayment" xlink:title="&lt;TABLE&gt;">
<path fill="none" stroke="#999999" stroke-width="1.3" stroke-opacity="0.466667" d="M322.93,-86.91C322.74,-76.82 323.82,-64.08 328.99,-54 330.73,-50.61 332.95,-47.41 335.46,-44.42"/>
<polygon fill="#999999" fill-opacity="0.466667" stroke="#999999" stroke-width="1.3" stroke-opacity="0.466667" points="337.72,-47.11 342.24,-37.53 332.73,-42.2 337.72,-47.11"/>
</a>
</g>
<g id="a_edge7&#45;label"><a xlink:href="#goPayment" xlink:title="&lt;TABLE&gt;">
<g id="a_edge7_9"><a xlink:href="#goPayment" xlink:title="Proceed to payment (safe)">
<text xml:space="preserve" text-anchor="start" x="328.99" y="-57.65" font-family="Times,serif" font-size="13.00" fill="#00a86b">■</text>
<text xml:space="preserve" text-anchor="start" x="336.49" y="-57.65" font-family="Times,serif" font-size="13.00"> goPayment</text>
</a>
</g>
</a>
</g>
</g>
<!-- Payment&#45;&gt;ProductList -->
<g id="edge10" class="edge doPayment">
<title>Payment&#45;&gt;ProductList</title>
<g id="a_edge10"><a xlink:href="#doPayment" xlink:title="&lt;TABLE&gt;">
<path fill="none" stroke="#000000" stroke-width="1.3" d="M387.01,-36.41C391.59,-41.71 396.17,-47.79 399.49,-54 410.37,-74.35 413.49,-80.92 413.49,-104 413.49,-280 413.49,-280 413.49,-280 413.49,-344.05 324.94,-360.44 266.27,-364.28"/>
<polygon fill="#000000" stroke="#000000" stroke-width="1.3" points="266.38,-360.77 256.58,-364.8 266.75,-367.76 266.38,-360.77"/>
</a>
</g>
<g id="a_edge10&#45;label"><a xlink:href="#doPayment" xlink:title="&lt;TABLE&gt;">
<g id="a_edge10_10"><a xlink:href="#doPayment" xlink:title="Complete payment (idempotent)">
<text xml:space="preserve" text-anchor="start" x="413.49" y="-188.15" font-family="Times,serif" font-size="13.00" fill="#d4a000">■</text>
<text xml:space="preserve" text-anchor="start" x="420.99" y="-188.15" font-family="Times,serif" font-size="13.00"> doPayment</text>
</a>
</g>
</a>
</g>
</g>
</g>
</svg>
