<?xml version="1.0" encoding="UTF-8" standalone="no"?>
<!DOCTYPE svg PUBLIC "-//W3C//DTD SVG 1.1//EN"
 "http://www.w3.org/Graphics/SVG/1.1/DTD/svg11.dtd">
<!-- Generated by graphviz version 2.40.1 (20161225.0304)
 -->
<!-- Title: application_state_diagram Pages: 1 -->
<svg width="446pt" height="427pt"
 viewBox="0.00 0.00 446.26 427.20" xmlns="http://www.w3.org/2000/svg" xmlns:xlink="http://www.w3.org/1999/xlink">
<g id="graph0" class="graph" transform="scale(1 1) rotate(0) translate(4 423.2)">
<title>application_state_diagram</title>
<g id="a_graph0"><a xlink:href="index.html" xlink:title="　" target="_parent">
<polygon fill="#ffffff" stroke="transparent" points="-4,4 -4,-423.2 442.2586,-423.2 442.2586,4 -4,4"/>
<text text-anchor="middle" x="219.1293" y="-402.6" font-family="Helvetica,sans-Serif" font-size="14.00" fill="#000000">　</text>
</a>
</g>
<!-- Cart -->
<g id="node1" class="node">
<title>Cart</title>
<g id="a_node1"><a xlink:href="#Cart" xlink:title="Cart" target="_parent">
<polygon fill="#d3d3d3" stroke="#000000" stroke-width="2" points="209.2212,-390.4 155.2212,-390.4 155.2212,-354.4 209.2212,-354.4 209.2212,-390.4"/>
<text text-anchor="middle" x="182.2212" y="-368.2" font-family="Times,serif" font-size="14.00" fill="#000000">Cart</text>
</a>
</g>
</g>
<!-- Cart&#45;&gt;Cart -->
<g id="edge1" class="edge">
<title>Cart&#45;&gt;Cart</title>
<path fill="none" stroke="#000000" d="M209.4619,-381.0166C219.2451,-381.2019 227.2212,-378.3297 227.2212,-372.4 227.2212,-368.7866 224.2594,-366.3086 219.7317,-364.9659"/>
<polygon fill="#000000" stroke="#000000" points="219.7967,-361.4503 209.4619,-363.7834 218.9959,-368.4044 219.7967,-361.4503"/>
<g id="a_edge1_0"><a xlink:href="#doRemoveItem" xlink:title="doRemoveItem (idempotent)">
<text text-anchor="start" x="231.2212" y="-378.7" font-family="Times,serif" font-size="13.00" fill="#000000">doRemoveItem (idempotent)</text>
</a>
</g>
<g id="a_edge1_1"><a xlink:href="#doUpdateQuantity" xlink:title="doUpdateQuantity (idempotent)">
<text text-anchor="start" x="231.0062" y="-357.7" font-family="Times,serif" font-size="13.00" fill="#000000">doUpdateQuantity (idempotent)</text>
</a>
</g>
</g>
<!-- Checkout -->
<g id="node2" class="node">
<title>Checkout</title>
<g id="a_node2"><a xlink:href="#Checkout" xlink:title="Checkout" target="_parent">
<polygon fill="#d3d3d3" stroke="#000000" stroke-width="2" points="151.8786,-298.8 96.5637,-298.8 96.5637,-262.8 151.8786,-262.8 151.8786,-298.8"/>
<text text-anchor="middle" x="124.2212" y="-276.6" font-family="Times,serif" font-size="14.00" fill="#000000">Checkout</text>
</a>
</g>
</g>
<!-- Cart&#45;&gt;Checkout -->
<g id="edge2" class="edge goCheckout">
<title>Cart&#45;&gt;Checkout</title>
<g id="a_edge2"><a xlink:href="#goCheckout" xlink:title="goCheckout (safe)" target="_parent">
<path fill="none" stroke="#000000" stroke-width="1.5" d="M154.9533,-359.0941C144.5562,-352.5555 133.7328,-343.636 127.5672,-332.4 123.7236,-325.3956 122.1481,-317.0248 121.7282,-309.0843"/>
<polygon fill="#000000" stroke="#000000" stroke-width="1.5" points="125.2282,-309.0517 121.7483,-299.0447 118.2282,-309.0376 125.2282,-309.0517"/>
</a>
</g>
<g id="a_edge2&#45;label"><a xlink:href="#goCheckout" xlink:title="goCheckout (safe)" target="_parent">
<text text-anchor="start" x="128.2212" y="-320.7" font-family="Times,serif" font-size="13.00" fill="#000000">goCheckout (safe)</text>
</a>
</g>
</g>
<!-- ProductList -->
<g id="node4" class="node">
<title>ProductList</title>
<g id="a_node4"><a xlink:href="#ProductList" xlink:title="ProductList" target="_parent">
<polygon fill="#d3d3d3" stroke="#000000" stroke-width="2" points="127.0488,-123.6 59.3936,-123.6 59.3936,-87.6 127.0488,-87.6 127.0488,-123.6"/>
<text text-anchor="middle" x="93.2212" y="-101.4" font-family="Times,serif" font-size="14.00" fill="#000000">ProductList</text>
</a>
</g>
</g>
<!-- Cart&#45;&gt;ProductList -->
<g id="edge3" class="edge goProductList">
<title>Cart&#45;&gt;ProductList</title>
<g id="a_edge3"><a xlink:href="#goProductList" xlink:title="goProductList (safe)" target="_parent">
<path fill="none" stroke="#000000" stroke-width="1.5" d="M155.1352,-362.4775C113.7418,-345.6308 36.3282,-307.0701 5.7304,-244.8 -14.9258,-202.7623 26.8462,-157.4232 59.5015,-130.2869"/>
<polygon fill="#000000" stroke="#000000" stroke-width="1.5" points="61.9713,-132.7918 67.5638,-123.7932 57.5803,-127.3402 61.9713,-132.7918"/>
</a>
</g>
<g id="a_edge3&#45;label"><a xlink:href="#goProductList" xlink:title="goProductList (safe)" target="_parent">
<text text-anchor="start" x="6.2212" y="-233.1" font-family="Times,serif" font-size="13.00" fill="#000000">goProductList (safe)</text>
</a>
</g>
</g>
<!-- Payment -->
<g id="node5" class="node">
<title>Payment</title>
<g id="a_node5"><a xlink:href="#Payment" xlink:title="Payment" target="_parent">
<polygon fill="#d3d3d3" stroke="#000000" stroke-width="2" points="140.7142,-211.2 75.7282,-211.2 75.7282,-175.2 140.7142,-175.2 140.7142,-211.2"/>
<text text-anchor="middle" x="108.2212" y="-189" font-family="Times,serif" font-size="14.00" fill="#000000">Payment</text>
</a>
</g>
</g>
<!-- Checkout&#45;&gt;Payment -->
<g id="edge4" class="edge goPayment">
<title>Checkout&#45;&gt;Payment</title>
<g id="a_edge4"><a xlink:href="#goPayment" xlink:title="goPayment (safe)" target="_parent">
<path fill="none" stroke="#000000" stroke-width="1.5" d="M120.906,-262.6492C118.7392,-250.7862 115.8645,-235.0473 113.3997,-221.5523"/>
<polygon fill="#000000" stroke="#000000" stroke-width="1.5" points="116.772,-220.5359 111.5321,-211.3275 109.8859,-221.7937 116.772,-220.5359"/>
</a>
</g>
<g id="a_edge4&#45;label"><a xlink:href="#goPayment" xlink:title="goPayment (safe)" target="_parent">
<text text-anchor="start" x="117.2212" y="-233.1" font-family="Times,serif" font-size="13.00" fill="#000000">goPayment (safe)</text>
</a>
</g>
</g>
<!-- ProductDetail -->
<g id="node3" class="node">
<title>ProductDetail</title>
<g id="a_node3"><a xlink:href="#ProductDetail" xlink:title="ProductDetail" target="_parent">
<polygon fill="#d3d3d3" stroke="#000000" stroke-width="2" points="226.9775,-36 147.4648,-36 147.4648,0 226.9775,0 226.9775,-36"/>
<text text-anchor="middle" x="187.2212" y="-13.8" font-family="Times,serif" font-size="14.00" fill="#000000">ProductDetail</text>
</a>
</g>
</g>
<!-- ProductDetail&#45;&gt;Cart -->
<g id="edge6" class="edge doAddToCart">
<title>ProductDetail&#45;&gt;Cart</title>
<g id="a_edge6"><a xlink:href="#doAddToCart" xlink:title="doAddToCart (unsafe)" target="_parent">
<path fill="none" stroke="#000000" stroke-width="1.5" d="M227.0281,-22.6099C250.2465,-27.153 278.71,-36.1595 298.2212,-54 316.62,-70.8234 320.2212,-80.6692 320.2212,-105.6 320.2212,-280.8 320.2212,-280.8 320.2212,-280.8 320.2212,-329.3121 260.291,-353.6653 219.4182,-364.6332"/>
<polygon fill="#000000" stroke="#000000" stroke-width="1.5" points="218.3251,-361.2993 209.4855,-367.1398 220.038,-368.0865 218.3251,-361.2993"/>
</a>
</g>
<g id="a_edge6&#45;label"><a xlink:href="#doAddToCart" xlink:title="doAddToCart (unsafe)" target="_parent">
<text text-anchor="start" x="320.2212" y="-189.3" font-family="Times,serif" font-size="13.00" fill="#000000">doAddToCart (unsafe)</text>
</a>
</g>
</g>
<!-- ProductDetail&#45;&gt;ProductList -->
<g id="edge7" class="edge goProductList">
<title>ProductDetail&#45;&gt;ProductList</title>
<g id="a_edge7"><a xlink:href="#goProductList" xlink:title="goProductList (safe)" target="_parent">
<path fill="none" stroke="#000000" stroke-width="1.5" d="M147.4147,-23.8218C113.8174,-29.646 69.5089,-39.7865 58.7304,-54 52.4494,-62.2826 55.7999,-71.6502 62.4149,-80.109"/>
<polygon fill="#000000" stroke="#000000" stroke-width="1.5" points="59.8965,-82.5415 69.225,-87.5645 65.0649,-77.8205 59.8965,-82.5415"/>
</a>
</g>
<g id="a_edge7&#45;label"><a xlink:href="#goProductList" xlink:title="goProductList (safe)" target="_parent">
<text text-anchor="start" x="59.2212" y="-57.9" font-family="Times,serif" font-size="13.00" fill="#000000">goProductList (safe)</text>
</a>
</g>
</g>
<!-- ProductList&#45;&gt;Cart -->
<g id="edge8" class="edge goCart">
<title>ProductList&#45;&gt;Cart</title>
<g id="a_edge8"><a xlink:href="#goCart" xlink:title="goCart (safe)" target="_parent">
<path fill="none" stroke="#000000" stroke-width="1.5" d="M127.0176,-110.2847C161.5125,-115.8403 211.5946,-126.3162 223.2212,-141.6 236.0565,-158.4729 231.4548,-312.8642 223.2212,-332.4 221.0487,-337.5546 217.8514,-342.3752 214.1846,-346.7598"/>
<polygon fill="#000000" stroke="#000000" stroke-width="1.5" points="211.5185,-344.4853 207.1972,-354.1588 216.6078,-349.2914 211.5185,-344.4853"/>
</a>
</g>
<g id="a_edge8&#45;label"><a xlink:href="#goCart" xlink:title="goCart (safe)" target="_parent">
<text text-anchor="start" x="231.2212" y="-233.1" font-family="Times,serif" font-size="13.00" fill="#000000">goCart (safe)</text>
</a>
</g>
</g>
<!-- ProductList&#45;&gt;ProductDetail -->
<g id="edge9" class="edge goProductDetail">
<title>ProductList&#45;&gt;ProductDetail</title>
<g id="a_edge9"><a xlink:href="#goProductDetail" xlink:title="goProductDetail (safe)" target="_parent">
<path fill="none" stroke="#000000" stroke-width="1.5" d="M127.2179,-94.4364C140.4461,-88.7159 154.8769,-80.5913 165.2212,-69.6 171.5534,-62.8717 176.2138,-54.0433 179.5718,-45.5955"/>
<polygon fill="#000000" stroke="#000000" stroke-width="1.5" points="182.9296,-46.597 182.9377,-36.0021 176.3243,-44.2794 182.9296,-46.597"/>
</a>
</g>
<g id="a_edge9&#45;label"><a xlink:href="#goProductDetail" xlink:title="goProductDetail (safe)" target="_parent">
<text text-anchor="start" x="176.2212" y="-57.9" font-family="Times,serif" font-size="13.00" fill="#000000">goProductDetail (safe)</text>
</a>
</g>
</g>
<!-- ProductList&#45;&gt;ProductList -->
<g id="edge10" class="edge goProductList">
<title>ProductList&#45;&gt;ProductList</title>
<g id="a_edge10"><a xlink:href="#goProductList" xlink:title="goProductList (safe)" target="_parent">
<path fill="none" stroke="#000000" stroke-width="1.5" d="M127.0095,-113.4577C137.0623,-113.2231 144.8846,-110.6039 144.8846,-105.6 144.8846,-102.4726 141.829,-100.2766 137.083,-99.0122"/>
<polygon fill="#000000" stroke="#000000" stroke-width="1.5" points="137.3688,-95.5206 127.0095,-97.7423 136.4932,-102.4657 137.3688,-95.5206"/>
</a>
</g>
<g id="a_edge10&#45;label"><a xlink:href="#goProductList" xlink:title="goProductList (safe)" target="_parent">
<text text-anchor="start" x="144.8846" y="-101.7" font-family="Times,serif" font-size="13.00" fill="#000000">goProductList (safe)</text>
</a>
</g>
</g>
<!-- Payment&#45;&gt;ProductList -->
<g id="edge5" class="edge doPayment">
<title>Payment&#45;&gt;ProductList</title>
<g id="a_edge5"><a xlink:href="#doPayment" xlink:title="doPayment (idempotent)" target="_parent">
<path fill="none" stroke="#000000" stroke-width="1.5" d="M99.7463,-174.8813C97.5611,-169.3206 95.4976,-163.1151 94.3301,-157.2 92.8677,-149.791 92.248,-141.6676 92.0747,-134.1033"/>
<polygon fill="#000000" stroke="#000000" stroke-width="1.5" points="95.5748,-133.9183 92.0855,-123.9146 88.5748,-133.9108 95.5748,-133.9183"/>
</a>
</g>
<g id="a_edge5&#45;label"><a xlink:href="#doPayment" xlink:title="doPayment (idempotent)" target="_parent">
<text text-anchor="start" x="95.2212" y="-145.5" font-family="Times,serif" font-size="13.00" fill="#000000">doPayment (idempotent)</text>
</a>
</g>
</g>
</g>
</svg>
